<svg id="Layer_1" data-name="Layer 1" xmlns="http://www.w3.org/2000/svg" viewBox="0 0 809.42 360.25"><rect x="440.42" y="26.33" width="33" height="33"/><polygon points="129.58 70.49 130.53 70.49 137.94 163.4 173.66 163.4 159.6 6.65 121.6 6.65 86.83 97.09 52.06 6.65 14.06 6.65 0 163.4 35.72 163.4 43.13 70.49 44.08 70.49 76.19 162.45 97.47 162.45 129.58 70.49"/><path d="M504.11,329.92q19.38,0,31.92-13.87h.38v11h33.25V229.6H536v9.31q-12.54-12.16-31.92-12.16-21.09,0-34.77,15t-13.68,36.67q0,21.66,13.68,36.57T504.11,329.92Zm-6.18-68a22.23,22.23,0,0,1,16.25-6.46,22,22,0,0,1,16.06,6.46q6.56,6.47,6.55,16.53a22.33,22.33,0,0,1-6.36,16.34q-6.37,6.47-16.25,6.46-10.26,0-16.53-6.37t-6.27-16.43Q491.38,268.37,497.93,261.9Z" transform="translate(-274.58 -163.67)"/><path d="M662,316.05h.38v11h33.25V163.67H662v75.24q-12.54-12.16-31.92-12.16-21.09,0-34.77,15t-13.68,36.67q0,21.66,13.68,36.57t34.77,14.92Q649.46,329.92,662,316.05Zm-44.65-37.62q0-10.06,6.56-16.53a23.42,23.42,0,0,1,32.3,0q6.56,6.47,6.55,16.53a22.33,22.33,0,0,1-6.36,16.34q-6.37,6.47-16.25,6.46-10.26,0-16.53-6.37T617.35,278.43Z" transform="translate(-274.58 -163.67)"/><rect x="440.05" y="65.93" width="33.63" height="97.47"/><path d="M834.81,275a55.91,55.91,0,0,0-9.21-5.7,68.47,68.47,0,0,0-10.26-3.8c-.64-.13-1.56-.38-2.76-.76s-2.06-.67-2.56-.86l-2.28-.85c-1-.38-1.75-.67-2.19-.86s-1-.47-1.8-.85a6.45,6.45,0,0,1-1.62-1.05q-.48-.46-1-1.14a3.43,3.43,0,0,1-.75-1.42,6.1,6.1,0,0,1-.2-1.52q0-3.42,2.38-4.66c1.58-.82,4.28-1.23,8.08-1.23q10.26,0,21.66,6.08l11-22-4-1.9a63.1,63.1,0,0,0-12.16-3.8,72.6,72.6,0,0,0-16.53-1.9q-19.58,0-31.07,8.26T768,258.1q0,9.88,5.32,15.86a50.06,50.06,0,0,0,14.45,10.74,79.2,79.2,0,0,0,10,4.18,44.06,44.06,0,0,1,9,4.08,5.78,5.78,0,0,1,2.66,5q0,7-10.45,7-4.75,0-11.21-3.14a64.71,64.71,0,0,1-8.94-4.94q-2.46-1.8-4-3.13l-13.68,23,4.18,3.42q4.18,3.22,13.59,6.46a60.79,60.79,0,0,0,19.85,3.23q46.19,0,46.18-33.25a28.52,28.52,0,0,0-2.66-12.54A24.59,24.59,0,0,0,834.81,275Z" transform="translate(-274.58 -163.67)"/><path d="M867.11,315.48q16.25,14.44,42.47,14.44,25.26,0,41.7-14.54t16.44-36.95q0-22.43-16.82-37.05t-41.32-14.63q-24.9,0-41.81,14.53t-16.91,37.15Q850.86,301,867.11,315.48Zm26-53.58a22.23,22.23,0,0,1,16.25-6.46,22,22,0,0,1,16.05,6.46q6.55,6.47,6.56,16.53a22.34,22.34,0,0,1-6.37,16.34q-6.36,6.47-16.24,6.46-10.26,0-16.53-6.37t-6.28-16.43Q886.58,268.37,893.14,261.9Z" transform="translate(-274.58 -163.67)"/><path d="M1079.91,245.84a30.06,30.06,0,0,0-10.64-11.3,51.75,51.75,0,0,0-13.68-5.89,55.29,55.29,0,0,0-14.34-1.9q-14.82,0-27.93,13.11h-.38V229.6H979.31v97.47h33.63V272q0-7.22,6.17-13.11t13.78-5.89a15.79,15.79,0,0,1,12.63,5.7,19.9,19.9,0,0,1,4.85,13.3v55.1H1084V262.85A34.26,34.26,0,0,0,1079.91,245.84Z" transform="translate(-274.58 -163.67)"/><path d="M434.67,430.63q-8.75-3.81-12.92-5.7t-9.7-5a28.59,28.59,0,0,1-7.79-5.89,9.18,9.18,0,0,1-2.28-6,12.35,12.35,0,0,1,4.85-10.26q4.85-3.81,13.77-3.8a45.75,45.75,0,0,1,15.59,3,77.64,77.64,0,0,1,11.4,4.84c2,1.21,3.61,2.19,4.75,3l14.44-28.5-5.7-3.8q-5.9-3.62-18.05-7.32a85,85,0,0,0-24.89-3.71,53,53,0,0,0-35.54,13.4Q367,388.26,367,409.35a37.5,37.5,0,0,0,7.79,22.7q7.8,10.54,22,17.58,3.42,1.71,10.55,5t10.26,4.94a76.06,76.06,0,0,1,7.22,4.37,18.48,18.48,0,0,1,5.7,5.51,11.63,11.63,0,0,1,1.62,6q0,15.39-22.62,15.39-7.79,0-17.95-4.94T377.47,478q-4-2.94-6.27-4.84l-17.86,30,2.47,2.09a56.15,56.15,0,0,0,7.79,5.13q5.32,3,12,6.17a76.09,76.09,0,0,0,16.53,5.23,97.32,97.32,0,0,0,20.15,2.09,85.35,85.35,0,0,0,22.23-2.76,61.79,61.79,0,0,0,18.71-8.45,38.83,38.83,0,0,0,13.3-15.77q4.85-10.06,4.85-23.56,0-14.06-10.74-25.18A77.89,77.89,0,0,0,434.67,430.63Z" transform="translate(-274.58 -163.67)"/><path d="M574.22,428.54a51.75,51.75,0,0,0-13.68-5.89,55.29,55.29,0,0,0-14.34-1.9q-14.82,0-27.93,13.11h-.38V357.67H484.26v163.4h33.63V466q0-7.22,6.17-13.11T537.84,447a15.79,15.79,0,0,1,12.63,5.7,19.9,19.9,0,0,1,4.85,13.3v55.1H589V456.85a34.26,34.26,0,0,0-4.09-17A30.06,30.06,0,0,0,574.22,428.54Z" transform="translate(-274.58 -163.67)"/><rect x="327.67" y="259.93" width="33.63" height="97.47"/><path d="M734.49,425.31a32.78,32.78,0,0,0-7.79-3,39,39,0,0,0-10.83-1.52,31.34,31.34,0,0,0-10.45,1.8,34.45,34.45,0,0,0-8.36,4.09,46.13,46.13,0,0,0-6.08,5.13,47.21,47.21,0,0,0-3.71,4,12.68,12.68,0,0,0-1.23,1.9h-.38V423.6H652v97.47h33.63v-51.3a16.16,16.16,0,0,1,.76-4.18,43,43,0,0,1,2.56-6.46,15.36,15.36,0,0,1,6.18-6.46A19.72,19.72,0,0,1,705.61,450q11.21,0,17.48,5.32l14.06-28.5Z" transform="translate(-274.58 -163.67)"/><path d="M810.87,432.91Q798.33,420.75,779,420.75q-21.09,0-34.77,15T730.5,472.43q0,21.66,13.68,36.57T779,523.92q19.38,0,31.92-13.87h.38v11H844.5V423.6H810.87Zm-5.61,55.86q-6.36,6.47-16.24,6.46-10.26,0-16.53-6.37t-6.27-16.43q0-10.06,6.55-16.53A22.23,22.23,0,0,1,789,449.44a22,22,0,0,1,16.05,6.46q6.55,6.47,6.56,16.53Q811.63,482.31,805.26,488.77Z" transform="translate(-274.58 -163.67)"/><polygon points="586.45 259.93 586.45 285.58 626.73 285.58 578.47 357.4 679.36 357.4 679.36 331.75 634.9 331.75 683.16 259.93 586.45 259.93"/><rect x="695.51" y="259.93" width="33.63" height="97.47"/><rect x="327.42" y="220.33" width="33" height="33"/><rect x="696.42" y="220.33" width="33" height="33"/></svg>